<svg width="276" height="56" viewBox="0 0 276 56" version="1.1" xmlns="http://www.w3.org/2000/svg" xmlns:xlink="http://www.w3.org/1999/xlink"><path fill="#D1D1D1" d="M65.1 21.7v14.9H62V21.7h-5.6v-2.8H71v2.8zM77.8 26.5c-.6-.4-1.1-.5-1.8-.5s-1.3.3-1.9 1c-.5.6-.8 1.4-.8 2.3v7.3h-3V23.7h3v1.2c.8-.9 2-1.4 3.4-1.4 1 0 1.8.2 2.4.5l-1.3 2.5zM89.2 36.6v-1.1c-.4.4-1 .7-1.8.9-.7.3-1.4.4-2.1.4-3 0-4.5-1.6-4.5-4.8v-8.4h3v8.1c0 1.7.7 2.5 2.2 2.5.7 0 1.3-.2 1.9-.5.6-.4 1-.8 1.2-1.2v-8.9h3v12.9h-2.9zM107 31.1h-9.2c.1 1 .4 1.8 1.1 2.4.7.6 1.5.9 2.6.9 1.4 0 2.4-.4 3.1-1.1l1.2 2.3c-1.1.9-2.6 1.3-4.7 1.3-2 0-3.5-.6-4.7-1.7-1.1-1.2-1.7-2.8-1.7-4.8s.6-3.7 1.9-4.9c1.3-1.3 2.8-1.9 4.5-1.9 1.9 0 3.4.6 4.5 1.7s1.7 2.5 1.7 4.3c-.1.2-.2.7-.3 1.5zm-9.1-2.3h6.3c-.2-1.9-1.3-2.8-3.1-2.8s-2.8.9-3.2 2.8z"/><path fill="#C1F800" d="M120.1 36.6l-1.3-3.6h-6l-1.2 3.6h-3.5l7-17.9h1.4l7.1 17.9h-3.5zm-4.3-12.5l-2.1 6.5h4.2l-2.1-6.5zM135.4 24.7l-1.3 2.3c-.7-.7-1.7-1-2.8-1-1.1 0-2 .4-2.7 1.1-.7.8-1 1.8-1 3.1 0 2.7 1.3 4.1 3.9 4.1 1.1 0 2.1-.4 3-1.1l1.1 2.4c-.9.5-1.6.9-2.3 1-.7.1-1.4.2-2.3.2-2 0-3.6-.6-4.7-1.7-1.2-1.2-1.7-2.8-1.7-4.8s.6-3.7 1.9-4.9c1.3-1.3 3-1.9 5.2-1.9 1.2 0 2.6.4 3.7 1.2zM146.2 36.6v-8c0-.8-.2-1.4-.7-1.9-.5-.5-1.1-.7-2-.7-.5 0-1 .1-1.5.4-.5.3-.9.6-1.1.9v9.3h-3.1V18.9l3.1-.7v6.3c.8-.7 1.9-1.1 3.2-1.1 1.6 0 2.9.4 3.8 1.3.9.9 1.3 2.2 1.3 3.8v8h-3zM153.3 36.6V26.2h-1.7v-2.5h4.7v12.9zM154.9 18.7c.5 0 .9.2 1.2.5.3.3.5.8.5 1.2 0 .5-.2.9-.5 1.2-.3.3-.8.5-1.2.5-.5 0-.9-.2-1.2-.5-.3-.3-.5-.8-.5-1.2 0-.5.2-.9.5-1.2.3-.3.7-.5 1.2-.5zM171.4 31.1h-9.2c.1 1 .4 1.8 1.1 2.4.7.6 1.5.9 2.6.9 1.4 0 2.4-.4 3.1-1.1l1.2 2.3c-1.1.9-2.6 1.3-4.7 1.3-2 0-3.5-.6-4.7-1.7-1.1-1.2-1.7-2.8-1.7-4.8s.6-3.7 1.9-4.9c1.3-1.3 2.8-1.9 4.5-1.9 1.9 0 3.4.6 4.5 1.7s1.7 2.5 1.7 4.3c-.1.2-.2.7-.3 1.5zm-9.1-2.3h6.3c-.2-1.9-1.3-2.8-3.1-2.8s-2.8.9-3.2 2.8zM179.4 36.8h-1.1l-5.8-13.1h3.3l3 7.9 3.4-7.9h3.2zM198.6 31.1h-9.2c.1 1 .4 1.8 1.1 2.4.7.6 1.5.9 2.6.9 1.4 0 2.4-.4 3.1-1.1l1.2 2.3c-1.1.9-2.6 1.3-4.7 1.3-2 0-3.5-.6-4.7-1.7-1.1-1.2-1.7-2.8-1.7-4.8s.6-3.7 1.9-4.9c1.3-1.3 2.8-1.9 4.5-1.9 1.9 0 3.4.6 4.5 1.7s1.7 2.5 1.7 4.3c-.1.2-.2.7-.3 1.5zm-9.2-2.3h6.3c-.2-1.9-1.3-2.8-3.1-2.8-1.7 0-2.7.9-3.2 2.8zM216.2 36.6v-8.1c0-1.7-.8-2.5-2.3-2.5-.4 0-.9.1-1.3.4-.4.3-.7.6-.9.9v9.3h-3V28c0-.6-.2-1.1-.6-1.5-.4-.4-.9-.6-1.7-.6-.4 0-.8.1-1.2.4-.4.3-.8.6-1 .9v9.3h-3V23.7h2.1l.6 1.1c.8-.9 1.9-1.4 3.2-1.4 1.7 0 3 .5 3.9 1.4.4-.4.9-.8 1.6-1 .7-.3 1.3-.4 2-.4 1.4 0 2.6.4 3.4 1.2.8.8 1.2 2 1.2 3.4v8.5h-3zM233.9 31.1h-9.2c.1 1 .4 1.8 1.1 2.4.7.6 1.5.9 2.6.9 1.4 0 2.4-.4 3.1-1.1l1.2 2.3c-1.1.9-2.6 1.3-4.7 1.3-2 0-3.5-.6-4.7-1.7-1.1-1.2-1.7-2.8-1.7-4.8s.6-3.7 1.9-4.9c1.3-1.3 2.8-1.9 4.5-1.9 1.9 0 3.4.6 4.5 1.7s1.7 2.5 1.7 4.3c0 .2-.1.7-.3 1.5zm-9.1-2.3h6.3c-.2-1.9-1.3-2.8-3.1-2.8-1.7 0-2.8.9-3.2 2.8zM244.9 36.6v-7.5c0-1.1-.2-1.9-.6-2.4-.4-.5-1.1-.8-2.1-.8-.4 0-.9.1-1.4.4-.5.2-.9.6-1.2.9v9.3h-3V23.7h2.2l.6 1.2c.8-1 2-1.4 3.6-1.4 1.5 0 2.7.5 3.6 1.4.9.9 1.3 2.2 1.3 3.8v7.9h-3zM251.6 26.1h-1.5v-2.4h1.5v-2.6l3-1.1v3.7h3.5v2.4h-3.5v5.6c0 .9.1 1.6.4 2 .3.4.8.6 1.5.6s1.4-.2 2-.6v2.8c-.7.2-1.7.4-3 .4s-2.3-.4-3-1.1c-.7-.7-1-1.8-1-3.1v-6.6zM260.1 35.8l1.1-2.4c.9.7 1.9 1.1 3 1.1 1.2 0 1.8-.4 1.8-1.3 0-.5-.2-.9-.5-1.2-.4-.3-1-.7-2.1-1.1-2.2-.9-3.3-2.2-3.3-3.9 0-1.1.4-2 1.3-2.6.9-.6 1.9-.9 3.3-.9 1.3 0 2.6.3 3.8.9l-.9 2.3c-.7-.6-1.6-.8-2.7-.8s-1.6.4-1.6 1.3c0 .3.2.6.5.9.3.3 1.1.6 2.2 1.1 1.1.4 1.9 1 2.4 1.6.5.6.7 1.4.7 2.3 0 1.2-.4 2.1-1.3 2.8-.9.7-2.1 1-3.6 1-.9 0-1.5-.1-2.1-.2-.5-.2-1.1-.5-2-.9z"/><path fill="#C1F800" fill-rule="evenodd" d="M9.8 25.1c1-7.7 7.1-13.9 14.8-15V7c-9.5 1.1-16.9 8.6-18 18.1h3.2z" clip-rule="evenodd"/><path fill="#6E6C6C" fill-rule="evenodd" d="M44.4 25.1c-1-7.7-7.1-13.9-14.8-15V7c9.5 1.1 16.9 8.6 18 18.1h-3.2zM9.8 29.9c1 7.7 7.1 13.9 14.8 15V48c-9.5-1.1-16.9-8.6-18-18.1h3.2zM44.4 29.9c-1 7.7-7.1 13.9-14.8 15V48c9.5-1.1 16.9-8.6 18-18.1h-3.2z" clip-rule="evenodd"/><path fill="#D1D1D1" d="M19.8 24.1h2.6c.5 0 .9-.4.9-.9s-.4-.9-.9-.9H19.7c-.9 0-1.7-.8-1.7-1.7v-1.8c0-.5-.4-.9-.9-.9s-.9.4-.9.9v1.8c.1 1.9 1.6 3.5 3.6 3.5zM23.4 33.5h-3.7c-.9 0-1.7-.8-1.7-1.7V25.5c0-.5-.4-.9-.9-.9s-.9.4-.9.9v6.3c0 1.9 1.6 3.5 3.5 3.5h3.6c.5 0 .9-.4.9-.9.1-.5-.3-.9-.8-.9zM39.4 31.6c0-.5-.4-.9-.9-.9s-.9.4-.9.9v.1c0 .9-.7 1.7-1.6 1.7h-3.8c-.9-.1-1.6-.8-1.6-1.7v-.4c0-1 .8-1.7 1.7-1.7h3.6c1.9 0 3.5-1.6 3.5-3.5v-.2-.2c0-1.9-1.4-3.4-3.3-3.5h-.2-.1H30c-.5 0-.9.4-.9.9s.4.9.9.9H35.8c.9 0 1.7.8 1.7 1.7v.3c0 1-.8 1.7-1.7 1.7h-3.6c-1.9 0-3.5 1.6-3.5 3.5v.4c0 1.9 1.6 3.5 3.5 3.5H36c1.8-.1 3.3-1.6 3.3-3.5h.1c0 .1 0 .1 0 0z"/></svg>